<?xml version="1.0" encoding="utf-8"?>
<!-- Generator: Adobe Illustrator 17.1.0, SVG Export Plug-In . SVG Version: 6.00 Build 0)  -->
<!DOCTYPE svg PUBLIC "-//W3C//DTD SVG 1.1//EN" "http://www.w3.org/Graphics/SVG/1.1/DTD/svg11.dtd">
<svg version="1.1" id="Layer_1" xmlns="http://www.w3.org/2000/svg" xmlns:xlink="http://www.w3.org/1999/xlink" x="0px" y="0px"
	 viewBox="-0.1 63.1 677.6 665.1" enable-background="new -0.1 63.1 677.6 665.1" xml:space="preserve">
<g>
	<g>
		<g>
			<defs>
				<rect id="SVGID_1_" x="0" y="63.5" width="677.5" height="664.7"/>
			</defs>
			<clipPath id="SVGID_2_">
				<use xlink:href="#SVGID_1_"  overflow="visible"/>
			</clipPath>
			<path clip-path="url(#SVGID_2_)" fill="#2C2B2A" d="M152.8,339.6l18.8-109.8l-45.1,13.1l-3.4,1.6c-29-39.3-70.4-10.2-80-2.9
				c1.4-2.4,6.8-13.1,3.7-38c-3.1-25.1-0.6-38.3-0.6-38.3l2.5,5.4l1.4,6.4c0,0,31.9-8.3,15.8-27c-12.4-14.4-33,4.5-33,4.5
				c-100.1,163.1,54.9,182.6,97.5,184.8h22.3V339.6z"/>
		</g>
	</g>
	<g>
		<g>
			<defs>
				<rect id="SVGID_3_" x="0" y="63.5" width="677.5" height="664.7"/>
			</defs>
			<clipPath id="SVGID_4_">
				<use xlink:href="#SVGID_3_"  overflow="visible"/>
			</clipPath>
			<path clip-path="url(#SVGID_4_)" fill="#2C2B2A" d="M568.7,207.1c-41.4,0-60.6-14.2-53.8-20.6c0,0-56.9-8.8-73.8,16.1
				c0,0-16.1,2.4-48.2-10.2c0,0-44.3-16.1-76.9-7.8c-20,4.8-35.8,15.3-53.8,20.9l3.7-102.9c0,0-86.2-6.9-94.1-22.2
				c-3.4-6.2,8.2-12.6,10.2-2.9c0,0,0.6-10.2-7.3-13.7c-7.9-3.5-23.7,7.8-20,21.7c3.4,13.1,16.6,16.1,16.6,16.1l-18.4,52.7l13.8,3.3
				l-3.1,34.8l9.6,9.7l-7.3,18.2c-10.7-2.1-25.1-2.4-23.4,13.4l0,0c0,0,0.6,0,1.1,0.3l-0.9,0.3l2.2,3.8l-14.6,101.5
				c8.4,23.9,23.9,61.9,32.1,93.7c0,0,3.1,11.5,6.8,28.4l0,0c4.2,18.5,7.9,37.8,11.3,58.1l99-16.1c0-0.5,0-1.4,0.3-1.9
				c3.4-57.5,9.9-111.4,18.6-157.7c4.8,1.6,11.5,4.3,11.5,4.3c56.7,28.1,1.4,87.8,1.4,87.8l-7.1-0.5c0,0-25.4-3.5-18.9,14.2
				c6.5,18.2,29-4.3,29-4.3c188-60.5,44.3-189,14.9-202.5c-0.6-0.3-1.1-0.3-1.4-0.5c28.5,5,64.2,18,93,48.5
				c57.8,61.3,173.6-22.5,197.3-43.1c23.7-20.3,59.5,7.8,59.5,7.8S637.8,207.1,568.7,207.1"/>
		</g>
	</g>
	<g>
		<g>
			<defs>
				<rect id="SVGID_5_" x="0" y="63.5" width="677.5" height="664.7"/>
			</defs>
			<clipPath id="SVGID_6_">
				<use xlink:href="#SVGID_5_"  overflow="visible"/>
			</clipPath>
			<path clip-path="url(#SVGID_6_)" fill="#2C2B2A" d="M204.6,716.1c-27.6,8.5-28.8,12.1-28.8,12.1s38.9,0,41.2,0
				c0.9,0,12.7-158.8,13.5-158.8c1.1,0-9,158.8-8.2,158.8c5.1,0,36.6,0,36.6,0c-4.8-7.8-25.9-12.1-25.9-12.1
				c8.7-65.1,27.3-137.9,44.5-195.8l-96.1,4C193.1,609,201.5,685.6,204.6,716.1"/>
		</g>
	</g>
</g>
<polygon fill="#B3B3B3" points="207.7,263.8 156.7,286.8 172.2,352.1 219.9,371.2 262.2,342.8 263.3,275.9 "/>
<polygon fill="#B63030" points="258.4,280.2 208.2,269.4 219,365.6 257.1,340.1 "/>
<polygon fill="#E43538" points="162.9,290.1 176.7,348.4 219,365.6 208.2,269.4 "/>
<path fill="#F3F3F3" d="M229.9,324.9l-29.6,2.9l-4.8,16.3l-12.1,1.4l25.1-72.6l41.7,66.2l-11.3,1.1L229.9,324.9z M225,316
	l-13.5-20.9l-7.3,23L225,316z"/>
<polygon fill="#B3B3B3" points="208.8,272.9 211.3,295.1 225,316 213.7,317.1 214.8,326.5 229.9,324.9 239,340.1 250.9,339.1 "/>
</svg>
