<?xml version="1.0" encoding="utf-8"?>
<!-- Generator: Adobe Illustrator 17.1.0, SVG Export Plug-In . SVG Version: 6.00 Build 0)  -->
<!DOCTYPE svg PUBLIC "-//W3C//DTD SVG 1.1//EN" "http://www.w3.org/Graphics/SVG/1.1/DTD/svg11.dtd">
<svg version="1.1" id="Layer_1" xmlns="http://www.w3.org/2000/svg" xmlns:xlink="http://www.w3.org/1999/xlink" x="0px" y="0px"
	 viewBox="-32.5 127 677 665" enable-background="new -32.5 127 677 665" xml:space="preserve">
<g>
	<g>
		<g>
			<defs>
				<rect id="SVGID_1_" x="32.5" y="127" width="611.9" height="664.9"/>
			</defs>
			<clipPath id="SVGID_2_">
				<use xlink:href="#SVGID_1_"  overflow="visible"/>
			</clipPath>
			<path clip-path="url(#SVGID_2_)" fill="#2C2B2A" d="M401,780c-25.9,8.4-27,11.9-27,11.9s36.5,0,38.9,0
				c0.8,0,53.5-157.5,54.3-157.5c1.1,0,20.5,157.5,21.3,157.5c4.9,0,34.3,0,34.3,0c-4.6-7.8-24.3-11.9-24.3-11.9
				c-3-67,1.4-129.2,9.5-184.8l-92.4-5.4C419.3,663.5,411.8,729.7,401,780"/>
		</g>
	</g>
	<g>
		<g>
			<defs>
				<rect id="SVGID_3_" x="32.5" y="127" width="611.9" height="664.9"/>
			</defs>
			<clipPath id="SVGID_4_">
				<use xlink:href="#SVGID_3_"  overflow="visible"/>
			</clipPath>
			<path clip-path="url(#SVGID_4_)" fill="#2C2B2A" d="M545.2,499.8l-9.7-0.5c0,0-5.7-1.6-9.2,0.5c7.8-31.9,16.2-60.3,24.6-84.3
				c4.1,1.6,8.4,3.2,8.4,3.2C613.3,447.5,545.2,499.8,545.2,499.8 M574.4,311.3c0,0-0.5-0.3-0.8-0.3l-29.2-11.9
				c0.8,0,1.1-0.3,1.1-0.3c1.9-15.9-12.2-15.7-22.4-13.5l-7-18.4l9.2-9.7l-3-35.1l13.2-3.2l-17.6-53.2c0,0,12.7-3,15.9-16.2
				c3.5-14.1-11.6-25.4-19.2-21.9c-7.6,3.5-7,13.8-7,13.8c1.9-10,13-3.5,9.7,3c-7.8,15.1-90.2,22.2-90.2,22.2l3.5,103.8
				c-17.6-5.7-32.4-16.2-51.9-21.3c-31.1-8.4-73.5,7.8-73.5,7.8c-30.8,13-46.2,10.3-46.2,10.3c-16.2-24.9-70.8-16.2-70.8-16.2
				c6.5,6.5-11.6,20.8-51.6,20.8C70.6,271.8,32.5,321,32.5,321s34.3-28.4,57-7.8c22.7,20.6,133.7,105.1,189.1,43.5
				c27.6-30.8,61.9-43.8,89.2-48.9c-0.3,0.3-0.8,0.3-1.4,0.5c-28.1,13.5-165.9,143.2,14.6,204.3c0,0,21.6,23,27.8,4.3
				c5.9-17.8-18.1-14.3-18.1-14.3l-6.8,0.5c0,0-53-60,1.4-88.6c0,0,6.2-2.4,11.1-4.3c8.4,46.5,14.6,100.8,17.8,159.1
				c0,0.5,0,1.4,0.3,1.9l94.8,16.2c4.3-27.8,9.5-54,15.1-78.4c0.3,1.1,0.5,2.2,0.8,3.2c6.2,18.4,23-3,23-3
				C734.4,446.4,597.4,320.5,574.4,311.3"/>
		</g>
	</g>
</g>
<polygon fill="#B3B3B3" points="481.7,327.8 428.8,340.5 429.9,408 470.4,436.1 516.1,416.7 531.2,350.7 "/>
<polygon fill="#B63030" points="525.8,354 480.9,333.5 470.9,430.5 512,413.2 "/>
<polygon fill="#E43538" points="434.2,344.8 434.7,405.3 470.9,430.5 480.9,333.5 "/>
<path fill="#F3F3F3" d="M489.8,392.6l-28.4-3l-8.1,15.1l-11.9-1.1l38.9-66.7l25.1,73.5l-10.8-1.1L489.8,392.6z M486.6,382.9
	l-8.4-23.5l-11.6,21.3L486.6,382.9z"/>
<polygon fill="#B3B3B3" points="480.7,337 478.2,359.4 486.6,382.9 476.1,381.8 475,391 489.8,392.6 495,409.4 506.3,410.7 "/>
</svg>
